<?xml version="1.0" encoding="UTF-8"?>
<svg version="1.1" xmlns="http://www.w3.org/2000/svg" width="200" height="200">
<path d="M0 0 C66 0 132 0 200 0 C200 66 200 132 200 200 C134 200 68 200 0 200 C0 134 0 68 0 0 Z " fill="#FDFEFE" transform="translate(0,0)"/>
<path d="M0 0 C0.66 0 1.32 0 2 0 C2.061875 0.78375 2.12375 1.5675 2.1875 2.375 C2.455625 3.24125 2.72375 4.1075 3 5 C5.3430809 6.12085312 5.3430809 6.12085312 8 7 C10.375 8.625 10.375 8.625 12 11 C11.58792307 16.54413057 10.42985595 21.72180311 8.95874023 27.06835938 C8.75376923 27.83030609 8.54879822 28.59225281 8.33761597 29.37728882 C7.66637269 31.86751897 6.98755689 34.35561471 6.30859375 36.84375 C5.83872667 38.58096802 5.36933799 40.3183155 4.90040588 42.05578613 C3.67054708 46.60754352 2.43423412 51.15752305 1.1965332 55.70715332 C-0.06756954 60.35839272 -1.32551117 65.01129743 -2.58398438 69.6640625 C-5.049989 78.77767477 -7.5228206 87.88941931 -10 97 C-8.80502396 96.67883209 -7.61004791 96.35766418 -6.37886047 96.02676392 C57.60526621 78.83113546 57.60526621 78.83113546 78.875 73.4375 C79.85605713 73.18572998 80.83711426 72.93395996 81.84790039 72.67456055 C82.74114014 72.4506665 83.63437988 72.22677246 84.5546875 71.99609375 C85.32280762 71.80200928 86.09092773 71.6079248 86.88232422 71.40795898 C89 71 89 71 93 71 C95.11865761 74.66575271 97.23655968 78.33194053 99.35375977 81.99853516 C100.07425469 83.24605126 100.79495668 84.4934478 101.51586914 85.74072266 C102.55148791 87.53256408 103.58636357 89.32483284 104.62109375 91.1171875 C105.2442749 92.19597168 105.86745605 93.27475586 106.50952148 94.38623047 C108.92531176 98.62266793 109.33632877 101.03915062 109 106 C107.50202122 109.57850486 105.43014075 112.0515423 102.14414978 114.15635681 C97.01090656 116.17609709 91.17595067 115.5514468 85.73632812 115.51757812 C84.2772095 115.52300235 82.81809635 115.5301267 81.35899353 115.53881836 C77.4064555 115.55701919 73.45433614 115.54999781 69.501791 115.53730202 C65.36059842 115.52715745 61.21944109 115.53657174 57.07824707 115.54284668 C50.1245278 115.55011886 43.17097859 115.54054672 36.21728516 115.52148438 C28.18395816 115.49971637 20.15103728 115.50676805 12.11772013 115.52879 C5.21391788 115.5469563 -1.68976229 115.54949633 -8.59358072 115.53903532 C-12.71406108 115.53280712 -16.83435071 115.53194611 -20.95481873 115.54518127 C-24.82917172 115.55675718 -28.7030024 115.54868285 -32.57729912 115.52560425 C-33.99705069 115.52032637 -35.41684641 115.52181523 -36.83658028 115.53065491 C-50.14657331 115.60587079 -50.14657331 115.60587079 -55 111 C-58.23155355 107.01441729 -58.34609743 104.04104214 -58 99 C-56.78515625 96.06347656 -56.78515625 96.06347656 -55.0625 93.140625 C-54.4228833 92.03871826 -53.7832666 90.93681152 -53.12426758 89.80151367 C-52.41646854 88.61750228 -51.70837137 87.43366907 -51 86.25 C-50.27171949 85.007685 -49.54477192 83.76458773 -48.8190918 82.52075195 C-46.93522932 79.30094298 -45.03313857 76.09236404 -43.1239624 72.88751221 C-41.69562999 70.48886003 -40.27309699 68.08679693 -38.85055542 65.68470764 C-36.50547806 61.7248469 -34.15763515 57.76667835 -31.80175781 53.81323242 C-26.97115459 45.69470631 -22.29702155 37.49830315 -17.67797852 29.25805664 C-13.9650578 22.65464962 -10.14823982 16.12070226 -6.25 9.625 C-5.73598633 8.767854 -5.22197266 7.91070801 -4.69238281 7.02758789 C-1.13571394 1.13571394 -1.13571394 1.13571394 0 0 Z " fill="#0A80C1" transform="translate(74,62)"/>
<path d="M0 0 C0.69996094 -0.02449219 1.39992187 -0.04898437 2.12109375 -0.07421875 C10.18742607 2.44247693 13.91101197 10.0785749 17.625 17.0625 C18.76261914 19.13765369 19.9019982 21.21184336 21.04296875 23.28515625 C21.62353027 24.34750488 22.2040918 25.40985352 22.80224609 26.50439453 C25.5944465 31.55359133 28.51412186 36.52596778 31.4375 41.5 C37.00044645 50.99612343 42.50916779 60.5222273 47.99389648 70.0637207 C51.09412375 75.44643885 54.21926282 80.8119077 57.3984375 86.1484375 C58.00486084 87.16663574 58.61128418 88.18483398 59.23608398 89.23388672 C60.38780969 91.16240956 61.54340344 93.08862911 62.70336914 95.01220703 C63.21246826 95.86411621 63.72156738 96.71602539 64.24609375 97.59375 C64.69525146 98.33947266 65.14440918 99.08519531 65.60717773 99.85351562 C66.5625 101.6875 66.5625 101.6875 66.5625 103.6875 C65.29277344 104.00203125 64.02304688 104.3165625 62.71484375 104.640625 C52.30367895 107.22663056 41.91740091 109.88357093 31.5625 112.6875 C16.95690122 116.64022542 2.34353125 120.56374707 -12.28317261 124.43768311 C-14.00741304 124.8949279 -15.73131277 125.35345947 -17.4548645 125.81329346 C-19.88434674 126.46112016 -22.31504227 127.10418475 -24.74609375 127.74609375 C-25.47931854 127.94262039 -26.21254333 128.13914703 -26.96798706 128.34162903 C-29.88081317 129.10625616 -32.4113173 129.6875 -35.4375 129.6875 C-34.8263317 123.68276073 -33.62037409 118.10710659 -31.99609375 112.30078125 C-31.75248611 111.41299988 -31.50887848 110.52521851 -31.25788879 109.61053467 C-30.73737539 107.71672796 -30.21429473 105.82362527 -29.68884277 103.93118286 C-28.86841488 100.97628264 -28.05498093 98.01953246 -27.24316406 95.06225586 C-25.00432955 86.91729734 -22.74844402 78.77720373 -20.46205139 70.64546204 C-19.8846937 68.59178949 -19.30941834 66.53754418 -18.73461914 64.4831543 C-18.05376615 62.0557999 -17.36706935 59.63007444 -16.67358398 57.20629883 C-16.37395752 56.13919678 -16.07433105 55.07209473 -15.765625 53.97265625 C-15.5068457 53.06394775 -15.24806641 52.15523926 -14.98144531 51.21899414 C-14.41118605 48.56503621 -14.11911097 46.38834698 -14.4375 43.6875 C-15.4275 43.0275 -16.4175 42.3675 -17.4375 41.6875 C-17.4375 41.0275 -17.4375 40.3675 -17.4375 39.6875 C-18.241875 39.460625 -19.04625 39.23375 -19.875 39 C-20.720625 38.566875 -21.56625 38.13375 -22.4375 37.6875 C-23.125 35.125 -23.125 35.125 -23.4375 32.6875 C-24.0975 32.3575 -24.7575 32.0275 -25.4375 31.6875 C-23.4265439 28.06739599 -21.39974094 24.45677719 -19.35839844 20.85375977 C-18.66755346 19.62929994 -17.98094022 18.40244176 -17.29882812 17.1730957 C-7.7368891 -0.04258838 -7.7368891 -0.04258838 0 0 Z " fill="#0C95D2" transform="translate(99.4375,29.3125)"/>
<path d="M0 0 C2.11865761 3.66575271 4.23655968 7.33194053 6.35375977 10.99853516 C7.07425469 12.24605126 7.79495668 13.4934478 8.51586914 14.74072266 C9.55148791 16.53256408 10.58636357 18.32483284 11.62109375 20.1171875 C12.55586548 21.73536377 12.55586548 21.73536377 13.50952148 23.38623047 C15.92531176 27.62266793 16.33632877 30.03915062 16 35 C14.31095883 38.71589058 12.43684404 40.83948772 9 43 C6.68057632 43.36914349 6.68057632 43.36914349 4.07720947 43.36076355 C3.08725479 43.36488754 2.09730011 43.36901154 1.0773468 43.3732605 C-0.0023085 43.36247467 -1.08196381 43.35168884 -2.19433594 43.34057617 C-3.3360878 43.34101425 -4.47783966 43.34145233 -5.65419006 43.34190369 C-9.43109184 43.33981233 -13.20755069 43.31646414 -16.984375 43.29296875 C-19.60182452 43.28737405 -22.21927718 43.28310336 -24.83673096 43.28010559 C-31.02384365 43.27078452 -37.21079716 43.24617003 -43.39783978 43.21605712 C-50.44251604 43.18251494 -57.48719993 43.16602758 -64.53193617 43.15097082 C-79.02137286 43.11962045 -93.5106842 43.06685881 -108 43 C-107.86287598 42.31800537 -107.72575195 41.63601074 -107.58447266 40.93334961 C-107.4044873 40.03624268 -107.22450195 39.13913574 -107.0390625 38.21484375 C-106.86068848 37.32659912 -106.68231445 36.43835449 -106.49853516 35.52319336 C-106.10662539 33.53965395 -105.73668591 31.55177252 -105.375 29.5625 C-103.31526761 25.72390782 -99.96700494 25.23214841 -96 24 C-90.89437913 22.54898058 -85.7623264 21.20780575 -80.625 19.875 C-79.11919207 19.48113823 -77.61349746 19.08684299 -76.10791016 18.69213867 C-73.76770642 18.07881803 -71.42739374 17.46593732 -69.0866394 16.85472107 C-63.73626328 15.45757562 -58.39018859 14.04499834 -53.046875 12.62109375 C-40.08791843 9.16876927 -27.1251387 5.73208313 -14.125 2.4375 C-13.14450684 2.18589111 -12.16401367 1.93428223 -11.15380859 1.67504883 C-10.26000488 1.45099365 -9.36620117 1.22693848 -8.4453125 0.99609375 C-7.67719238 0.80200928 -6.90907227 0.6079248 -6.11767578 0.40795898 C-4 0 -4 0 0 0 Z " fill="#025597" transform="translate(167,133)"/>
<path d="M0 0 C4.09620634 1.62358696 6.83447899 4.56680396 9.87011719 7.64306641 C10.73418434 8.50669548 10.73418434 8.50669548 11.6157074 9.38777161 C13.51421037 11.28766537 15.40553522 13.19453991 17.296875 15.1015625 C18.61351582 16.42193434 19.93059957 17.74186464 21.24810791 19.06137085 C24.71145037 22.53234276 28.16874418 26.0092793 31.62481689 29.48748779 C35.1537998 33.03694385 38.6884642 36.58073201 42.22265625 40.125 C49.15401308 47.07779463 56.07899377 54.03690309 63 61 C59.84298472 63.10467685 57.59711181 63.75894178 53.9375 64.6875 C52.56230763 65.04222379 51.18732309 65.39775387 49.8125 65.75390625 C49.04550781 65.95129395 48.27851563 66.14868164 47.48828125 66.35205078 C43.84421073 67.30096789 40.211006 68.28901007 36.57666016 69.27441406 C24.77947844 72.47097504 12.96951692 75.62088692 1.15432739 78.75018311 C-0.56991304 79.2074279 -2.29381277 79.66595947 -4.0173645 80.12579346 C-6.44684674 80.77362016 -8.87754227 81.41668475 -11.30859375 82.05859375 C-12.04181854 82.25512039 -12.77504333 82.45164703 -13.53048706 82.65412903 C-16.44331317 83.41875616 -18.9738173 84 -22 84 C-21.38883063 77.99525024 -20.18282452 72.41962593 -18.55859375 66.61328125 C-18.31503143 65.72540924 -18.07146912 64.83753723 -17.82052612 63.92276001 C-17.03144484 61.05119423 -16.2345934 58.18185099 -15.4375 55.3125 C-14.892335 53.33485105 -14.34766009 51.35706694 -13.8034668 49.37915039 C-12.71740201 45.43518628 -11.62823759 41.4921005 -10.53613281 37.54980469 C-9.170917 32.62100057 -7.81393968 27.68998129 -6.4609375 22.7578125 C-5.11821851 17.86784649 -3.77536709 12.97791966 -2.42578125 8.08984375 C-2.17223877 7.17066162 -1.91869629 6.25147949 -1.6574707 5.30444336 C-1.14923502 3.5230707 -0.58579792 1.75739377 0 0 Z " fill="#F9FDFD" transform="translate(86,75)"/>
<path d="M0 0 C1.1446875 0.2784375 1.1446875 0.2784375 2.3125 0.5625 C5.08967375 1.22819173 5.08967375 1.22819173 8 0 C9.96822886 1.96822886 9.66248381 5.34808709 10 8 C11.98 8.66 13.96 9.32 16 10 C16.020625 10.70125 16.04125 11.4025 16.0625 12.125 C17.27502411 15.84340727 19.21202004 17.12595625 22.2109375 19.5078125 C24.49941759 21.4165448 26.23964295 23.60591441 28 26 C27.67 26.66 27.34 27.32 27 28 C23.15162167 24.1762616 19.30647906 20.34931029 15.46435547 16.51928711 C14.15568002 15.21565379 12.84611032 13.91291757 11.53564453 12.61108398 C9.65684348 10.74435384 7.78123696 8.87446632 5.90625 7.00390625 C5.31565796 6.41847549 4.72506592 5.83304474 4.11657715 5.22987366 C2.72527666 3.83876757 1.35971469 2.42199477 0 1 C0 0.67 0 0.34 0 0 Z " fill="#1E90C3" transform="translate(117,104)"/>
<path d="M0 0 C0.33 0 0.66 0 1 0 C1 1.98 1 3.96 1 6 C1.66 6 2.32 6 3 6 C3.0825 6.61875 3.165 7.2375 3.25 7.875 C3.81258459 10.18437567 3.81258459 10.18437567 6.0625 11.25 C6.701875 11.4975 7.34125 11.745 8 12 C8 12.66 8 13.32 8 14 C19.55 14 31.1 14 43 14 C43 14.33 43 14.66 43 15 C37.96465764 15.0990984 32.92988658 15.1715758 27.89379883 15.21972656 C26.18178414 15.23980505 24.46983772 15.26707392 22.75805664 15.30175781 C20.29295992 15.35044401 17.8287721 15.37300573 15.36328125 15.390625 C14.22080681 15.42159271 14.22080681 15.42159271 13.05525208 15.45318604 C9.31243491 15.45475578 7.22978695 15.14933767 4.05932617 13.08886719 C0.73311905 9.71494565 0.03521308 8.05639228 -0.125 3.25 C-0.08375 2.1775 -0.0425 1.105 0 0 Z " fill="#2280B3" transform="translate(16,161)"/>
<path d="M0 0 C1.6114863 4.01755587 0.30448095 7.43772176 -0.87109375 11.390625 C-1.0722731 12.09523865 -1.27345245 12.79985229 -1.48072815 13.52581787 C-2.12377068 15.76998605 -2.78041584 18.0099076 -3.4375 20.25 C-3.87655443 21.77317739 -4.31471603 23.29661244 -4.75195312 24.8203125 C-5.82430813 28.54994108 -6.90887749 32.27582078 -8 36 C-8.33 36 -8.66 36 -9 36 C-9.31653532 29.98582884 -8.53477977 26.55701719 -6 21 C-5.4322314 18.84001075 -4.98398492 16.67194329 -4.53515625 14.484375 C-3.92038624 11.63040618 -3.19357274 8.81974954 -2.4375 6 C-2.18871094 5.071875 -1.93992187 4.14375 -1.68359375 3.1875 C-1 1 -1 1 0 0 Z " fill="#217FB3" transform="translate(78,100)"/>
<path d="M0 0 C0.33 0 0.66 0 1 0 C1 3.63 1 7.26 1 11 C4.3 11 7.6 11 11 11 C7.85426323 13.09715785 5.98543749 13.52004559 2.3125 14.125 C1.31863281 14.29257813 0.32476562 14.46015625 -0.69921875 14.6328125 C-1.45847656 14.75398437 -2.21773438 14.87515625 -3 15 C-2.44854729 9.76119922 -1.57077907 5.02649303 0 0 Z " fill="#DBF4FB" transform="translate(67,144)"/>
<path d="M0 0 C0.33 0.66 0.66 1.32 1 2 C1.99 2.33 2.98 2.66 4 3 C5.1875 5.5625 5.1875 5.5625 6 8 C7.65 7.67 9.3 7.34 11 7 C11 9.66666667 11 12.33333333 11 15 C6.11950075 11.0580583 1.9419417 6.88049925 -2 2 C-1.34 1.34 -0.68 0.68 0 0 Z " fill="#1890C6" transform="translate(106,89)"/>
<path d="M0 0 C3.24741424 2.78496601 5.16089095 6.39536751 7.25 10.0625 C7.62640625 10.69994141 8.0028125 11.33738281 8.390625 11.99414062 C9.32643643 13.6266499 10.17105723 15.31071511 11 17 C10.67 17.66 10.34 18.32 10 19 C9.3503125 18.0409375 9.3503125 18.0409375 8.6875 17.0625 C7.08760823 14.73253997 7.08760823 14.73253997 4 14 C3.4375 12.0625 3.4375 12.0625 3 10 C2.34 9.34 1.68 8.68 1 8 C0.43479997 5.34462628 0.26211802 2.70855287 0 0 Z " fill="#2A95C9" transform="translate(120,54)"/>
<path d="M0 0 C2.21179831 7.86090747 -0.7713561 16.73555123 -4 24 C-4.66 24.66 -5.32 25.32 -6 26 C-5.39502042 19.93629658 -4.1366972 14.34485758 -2.4375 8.5 C-2.20353516 7.67757812 -1.96957031 6.85515625 -1.72851562 6.0078125 C-1.15757928 4.00370942 -0.57953295 2.00163409 0 0 Z " fill="#CFF0F9" transform="translate(80,96)"/>
<path d="M0 0 C2.97 0.495 2.97 0.495 6 1 C6 1.66 6 2.32 6 3 C7.32 3.33 8.64 3.66 10 4 C9.67 5.32 9.34 6.64 9 8 C8.360625 7.34 7.72125 6.68 7.0625 6 C2.98815358 3.33920234 -0.25661115 3.45815221 -5 4 C-5.99 4.33 -6.98 4.66 -8 5 C-7.67 4.01 -7.34 3.02 -7 2 C-4.69 2 -2.38 2 0 2 C0 1.34 0 0.68 0 0 Z " fill="#CFF1F9" transform="translate(100,27)"/>
<path d="M0 0 C0.7940625 -0.01417969 1.588125 -0.02835938 2.40625 -0.04296875 C4.5 0.1875 4.5 0.1875 6.5 2.1875 C5.83613281 2.14109375 5.17226562 2.0946875 4.48828125 2.046875 C-1.20904088 1.79464958 -1.20904088 1.79464958 -6.4375 3.8125 C-8.71796343 6.4384882 -10.12447874 9.00208234 -11.5 12.1875 C-12.16 12.1875 -12.82 12.1875 -13.5 12.1875 C-12.00948318 7.58044801 -9.71457741 4.72353516 -6.5 1.1875 C-4.14653604 0.01076802 -2.6193967 0.02126134 0 0 Z " fill="#2D93C0" transform="translate(99.5,29.8125)"/>
<path d="M0 0 C-1.65 0.33 -3.3 0.66 -5 1 C-5 1.66 -5 2.32 -5 3 C-9.62 3.33 -14.24 3.66 -19 4 C-15.73795243 2.36897622 -12.97278684 1.29041388 -9.5 0.3125 C-8.5615625 0.04050781 -7.623125 -0.23148438 -6.65625 -0.51171875 C-3.99233534 -1.00140894 -2.52388628 -0.88693174 0 0 Z " fill="#2B6696" transform="translate(97,152)"/>
<path d="M0 0 C1.2077558 3.62326739 0.54311128 4.64146369 -1 8 C-1.66 8 -2.32 8 -3 8 C-3.4021875 9.1446875 -3.4021875 9.1446875 -3.8125 10.3125 C-4.94424112 12.87380884 -5.91223401 14.19692938 -8 16 C-6.42986223 10.03347646 -3.24970218 5.17090975 0 0 Z " fill="#2F95C2" transform="translate(85,42)"/>
<path d="M0 0 C0.66 1.32 1.32 2.64 2 4 C-0.31 6.64 -2.62 9.28 -5 12 C-5.33 11.34 -5.66 10.68 -6 10 C-4.78515625 7.6171875 -4.78515625 7.6171875 -3.0625 4.875 C-2.21365234 3.50988281 -2.21365234 3.50988281 -1.34765625 2.1171875 C-0.90292969 1.41851562 -0.45820312 0.71984375 0 0 Z " fill="#1C80B6" transform="translate(47,108)"/>
<path d="M0 0 C2.61724095 2.36797991 4.32861729 4.89600354 6 8 C6 8.66 6 9.32 6 10 C4.35 10.33 2.7 10.66 1 11 C1.020625 9.9275 1.04125 8.855 1.0625 7.75 C1.0142016 4.85209576 0.86844115 2.71387859 0 0 Z " fill="#2D92C3" transform="translate(160,123)"/>
<path d="M0 0 C3.29078593 2.79716804 5.06305458 6.19528578 7 10 C6.67 10.66 6.34 11.32 6 12 C5.67 11.01 5.34 10.02 5 9 C2.98491642 8.26676204 2.98491642 8.26676204 1 8 C0.67 5.36 0.34 2.72 0 0 Z " fill="#2C96C7" transform="translate(113,42)"/>
<path d="M0 0 C1 2 1 2 0.25 4.9375 C-0.91914094 7.80189531 -1.73188575 9.02772674 -4 11 C-4.33 11.66 -4.66 12.32 -5 13 C-5.66 12.67 -6.32 12.34 -7 12 C-4.69 8.04 -2.38 4.08 0 0 Z " fill="#2782B4" transform="translate(40,120)"/>
<path d="M0 0 C4 2 4 2 5.8125 5.4375 C7 9 7 9 6 12 C4.02 8.04 2.04 4.08 0 0 Z " fill="#DCF7FB" transform="translate(161,123)"/>
<path d="M0 0 C0.66 0.33 1.32 0.66 2 1 C1 4 1 4 -1 7 C-2.65 5.02 -4.3 3.04 -6 1 C-4.7934375 1.0309375 -4.7934375 1.0309375 -3.5625 1.0625 C-1.06645115 1.29633621 -1.06645115 1.29633621 0 0 Z " fill="#1492C7" transform="translate(102,82)"/>
<path d="M0 0 C3.36720387 1.39332574 4.9859524 2.9789286 7 6 C4.36 5.67 1.72 5.34 -1 5 C-0.67 3.35 -0.34 1.7 0 0 Z " fill="#C8EFF9" transform="translate(86,75)"/>
<path d="M0 0 C2.40575607 2.18517099 3.79535581 4.25919671 5.1875 7.1875 C5.53167969 7.90292969 5.87585938 8.61835937 6.23046875 9.35546875 C6.48441406 9.89816406 6.73835937 10.44085938 7 11 C6.01 11 5.02 11 4 11 C4 10.01 4 9.02 4 8 C3.34 8 2.68 8 2 8 C1.34 5.36 0.68 2.72 0 0 Z " fill="#3096C6" transform="translate(149,104)"/>
<path d="M0 0 C2.97 0.495 2.97 0.495 6 1 C6.33 2.98 6.66 4.96 7 7 C5.83040013 6.02433888 4.66438823 5.044375 3.5 4.0625 C2.8503125 3.51722656 2.200625 2.97195312 1.53125 2.41015625 C1.0259375 1.94480469 0.520625 1.47945313 0 1 C0 0.67 0 0.34 0 0 Z " fill="#1A90C3" transform="translate(87,74)"/>
<path d="M0 0 C0.66 0.99 1.32 1.98 2 3 C0.95125002 5.62187494 0.35068687 6.79371361 -2.125 8.25 C-2.74375 8.4975 -3.3625 8.745 -4 9 C-2.94124926 5.59687262 -1.99097846 2.98646769 0 0 Z " fill="#1D81B6" transform="translate(27,142)"/>
<path d="M0 0 C0.99 0.33 1.98 0.66 3 1 C2.34 3.97 1.68 6.94 1 10 C0.67 10 0.34 10 0 10 C0 6.7 0 3.4 0 0 Z " fill="#2080B7" transform="translate(83,74)"/>
<path d="M0 0 C4 2 4 2 5.3125 3.9375 C6 6 6 6 5 9 C3.35 6.03 1.7 3.06 0 0 Z " fill="#D5F7FD" transform="translate(152,108)"/>
</svg>
